<svg width="25" height="21" viewBox="0 0 25 21" fill="none" xmlns="http://www.w3.org/2000/svg">
<path d="M2.40227 8.776C9.7336 5.55075 19.2209 1.6185 20.5305 1.07425C23.9658 -0.350253 25.0199 -0.0772532 24.4943 3.07741C24.1169 5.34483 23.0278 12.8517 22.1598 17.5242C21.6447 20.2951 20.4891 20.6235 18.672 19.4247C17.7982 18.8478 13.3876 15.9312 12.4304 15.2463C11.5565 14.6222 10.3514 13.8714 11.8628 12.3927C12.4006 11.8659 15.9263 8.4995 18.6732 5.87916C19.0331 5.535 18.581 4.96975 18.1657 5.24566C14.4633 7.70091 9.32994 11.1087 8.6766 11.5527C7.6896 12.2229 6.74169 12.5303 5.0401 12.0415C3.75444 11.6722 2.49852 11.2318 2.00969 11.0638C0.12727 10.4175 0.574103 9.58041 2.40227 8.776Z" fill="white"/>
</svg>
